<?xml version="1.0"?>
<svg xmlns="http://www.w3.org/2000/svg" version="1.1" viewBox="0 0 551.21 551.21">
  
  <defs></defs>
  
  <g id="Layer_1">
    <g>
      <g>
        <g>
          <path fill="#2F5FAC" d="M467.15,326.79l50.6,13.58c1.44-1,2.88-2.04,4.27-3.14,2.25-1.71,4.29-3.59,6.27-5.58,1.98-1.99,3.89-4.09,5.72-6.31,1.81-2.22,3.39-4.57,4.95-7.01.77-1.22,1.52-2.47,2.25-3.74l1.07-1.92c.34-.65.64-1.31.96-1.97,2.45-5.3,4.64-10.94,5.88-16.88.34-1.48.64-2.98.92-4.49.27-1.51.54-3.03.66-4.57.3-3.07.47-6.19.51-9.34,0-.79,0-1.57,0-2.36-.02-.78-.08-1.56-.14-2.34-.11-1.56-.26-3.1-.43-4.64-.18-1.54-.39-3.06-.63-4.57l-.38-2.26-.52-2.23c-1.47-5.91-3.3-11.58-5.98-16.84-1.3-2.64-2.66-5.19-4.19-7.63-1.6-2.43-3.29-4.75-5.06-6.97-3.46-4.46-7.64-8.38-11.96-11.85-1.37-1.1-2.78-2.15-4.19-3.15l-50.6,13.59c4.51.39,8.93,1.14,13.24,2.3,2.15.58,4.28,1.26,6.37,2.04,1.05.39,2.08.81,3.11,1.25,1,.45,1.98.92,2.96,1.42,2.22,1.13,4.35,2.39,6.37,3.76.21.13.42.27.64.42,1.71,1.18,3.39,2.43,4.91,3.77,1.5,1.34,2.91,2.76,4.25,4.24,2.67,2.97,5.09,6.19,6.86,9.64,3.77,6.88,5.71,14.59,5.75,22.43-.03,1.96-.15,3.91-.38,5.85-.24,1.93-.51,3.85-1.06,5.73-1.04,3.77-2.38,7.42-4.23,10.87-1.93,3.44-4.21,6.68-6.81,9.66-2.73,2.96-5.83,5.65-9.19,8.03-.21.15-.42.29-.62.43-1.95,1.38-4.17,2.63-6.41,3.75-3.97,1.99-8.1,3.56-12.35,4.73-4.36,1.15-8.83,1.9-13.37,2.28Z"></path>
          <path fill="#E3701A" d="M460.34,315.12c2.46-1.06,4.95-2.18,7.44-3.35,2.41-1.18,4.82-2.42,7.25-3.71,2.42-1.29,4.88-2.63,7.31-4.03,2.36-1.41,4.73-2.87,7.1-4.39-1.04-2.03-1.86-4.04-2.67-6.05-.82-2.02-1.5-4.03-2.01-6.03-.93-4.01-1.69-8.01-1.59-12.04.09-2.11.1-4.2.4-6.29.27-2.09.75-4.19,1.35-6.28.52-2.09,1.21-4.19,2.06-6.3.83-2.1,1.93-4.23,2.96-6.34-2.41-1.5-4.81-2.95-7.21-4.34-2.42-1.39-4.72-2.74-7.23-4.01-2.46-1.27-4.92-2.5-7.36-3.67l-3.65-1.72c-1.2-.56-2.42-1.11-3.69-1.63-.44.87-.9,1.74-1.38,2.62-.46.87-.91,1.74-1.33,2.61-.85,1.73-1.63,3.44-2.32,5.15-.65,1.7-1.45,3.41-2.06,5.1-.63,1.69-1.18,3.37-1.65,5.04-.46,1.67-1.02,3.35-1.38,5.02-.39,1.67-.68,3.33-.9,5-.31,1.67-.53,3.35-.65,5.03-.14,1.68-.09,3.37-.17,5.07-.03,1.66.03,3.31.19,4.95.07.82.21,1.64.27,2.46.07.82.17,1.63.28,2.45.24,1.63.56,3.26.97,4.89.42,1.63.74,3.25,1.24,4.89.48,1.63,1.04,3.27,1.69,4.92.56,1.64,1.18,3.29,1.89,4.95.7,1.66,1.49,3.33,2.32,5.02.76,1.67,1.6,3.36,2.5,5.06Z"></path>
          <path fill="#E3701A" d="M415.86,415.74l37.1,36.99c1.75-.14,3.52-.33,5.28-.58,2.8-.37,5.46-1.02,8.2-1.72,2.71-.73,5.44-1.58,8.11-2.6,2.62-1.07,5.21-2.27,7.78-3.61,1.28-.67,2.56-1.37,3.83-2.1,1.26-.74,2.45-1.56,3.66-2.38,2.4-1.66,4.76-3.46,7.06-5.37,2.27-1.94,4.37-4.07,6.46-6.27,1.04-1.11,2.06-2.24,3.05-3.4,1-1.16,1.89-2.41,2.81-3.65,1.81-2.49,3.54-5.09,5.16-7.78,1.52-2.75,2.9-5.54,4.15-8.36.61-1.41,1.24-2.81,1.75-4.26.51-1.45.98-2.9,1.42-4.35.86-2.91,1.65-5.8,2.19-8.73.5-2.95.87-5.89,1.11-8.8.11-1.46.22-2.9.23-4.36,0-1.46-.03-2.92-.1-4.36-.13-2.89-.39-5.74-.78-8.54-.45-2.82-1.09-5.61-1.81-8.32-.76-2.72-1.53-5.35-2.61-7.96-.67-1.65-1.39-3.27-2.15-4.86l-50.6-13.58c3.73,2.59,7.32,5.5,10.42,8.64,3.11,3.14,5.91,6.58,8.36,10.29.69,1.05,1.38,2.13,1.98,3.2.59,1.07,1.15,2.16,1.66,3.26.12.21.22.45.33.68.87,1.87,1.64,3.78,2.31,5.71.66,1.93,1.26,3.9,1.62,5.83.78,3.88,1.19,7.86,1.11,11.78-.18,3.88-.75,7.76-1.74,11.53-1.12,3.7-2.64,7.32-4.52,10.75-2.03,3.35-4.4,6.47-7.04,9.3-2.77,2.74-5.84,5.18-9.11,7.28-3.35,2.04-7,3.67-10.75,4.94-1.86.65-3.86,1.12-5.86,1.52-2.01.39-4.04.68-6.1.86-.26.02-.51.04-.76.06-1.21.1-2.42.16-3.64.18-1.22.02-2.5-.03-3.76-.11-4.44-.27-8.82-.97-13.1-2.08-4.27-1.11-8.59-2.75-12.71-4.68Z"></path>
          <path fill="#2F5FAC" d="M415.77,402.23c2.66.3,5.43.63,8.1.79,2.68.18,5.41.32,8.16.41,5.58.24,11.04.13,16.7-.12.34-4.47.83-8.85,2-12.8.61-1.96,1.18-3.95,1.96-5.82.76-1.88,1.67-3.68,2.72-5.4,4.08-7.37,10.44-13.3,18.45-18.47-1.31-2.5-2.64-4.94-3.98-7.34-1.38-2.41-2.86-4.8-4.32-7.13-1.46-2.33-2.95-4.6-4.44-6.83-1.56-2.25-3.17-4.45-4.77-6.6-1.69,1.04-3.3,2.1-4.86,3.19-1.63,1.06-3.19,2.14-4.68,3.25-1.5,1.1-2.86,2.26-4.27,3.4-1.42,1.14-2.77,2.3-4.03,3.51-2.45,2.44-4.96,4.87-7.01,7.54-1,1.35-2.09,2.67-3.05,4.06-.97,1.39-1.86,2.83-2.66,4.34-6.71,11.49-9.46,24.59-10.01,40.03Z"></path>
        </g>
        <g>
          <path fill="#2F5FAC" d="M327.03,467.11l13.59,50.6c1.58.73,3.19,1.42,4.83,2.05,5.16,2.01,10.65,3.66,16.25,4.42,2.81.42,5.67.72,8.57.89,2.88.1,5.77,0,8.7-.19,5.9-.31,11.73-1.57,17.57-3.26l2.19-.66,2.14-.8c1.43-.55,2.85-1.13,4.27-1.75,1.42-.62,2.83-1.27,4.23-1.95.7-.34,1.41-.68,2.09-1.06l2.04-1.18c2.71-1.61,5.32-3.32,7.83-5.12,1.27-.88,2.45-1.87,3.62-2.86,1.17-.99,2.31-2.01,3.42-3.04,4.51-4.05,8.3-8.77,11.66-13.55.42-.6.83-1.2,1.22-1.81l1.13-1.89c.74-1.26,1.44-2.54,2.11-3.82,1.33-2.58,2.58-5.12,3.59-7.8,1-2.69,1.87-5.4,2.59-8.11.73-2.71,1.33-5.41,1.69-8.22.25-1.76.44-3.52.57-5.27l-37.1-36.99c1.95,4.12,3.55,8.36,4.74,12.7,1.12,4.26,1.82,8.63,2.09,13.06.15,2.51.19,5.05-.04,7.44,0,.24-.03.5-.06.75-.37,4.1-1.15,8.13-2.34,11.98-1.27,3.75-2.94,7.35-4.95,10.74-2.06,3.33-4.55,6.32-7.29,9.1-1.35,1.42-2.88,2.61-4.44,3.79-1.56,1.17-3.19,2.25-4.87,3.26-6.81,3.89-14.45,6.07-22.29,6.26-3.87.2-7.87-.28-11.78-1.11-1.95-.42-3.89-.93-5.8-1.56-1.92-.65-3.85-1.47-5.73-2.36-.23-.12-.46-.23-.69-.34-2.19-1.07-4.35-2.28-6.44-3.63-.92-.59-1.82-1.21-2.71-1.85-.9-.67-1.78-1.36-2.64-2.07-1.72-1.42-3.37-2.92-4.96-4.49-3.16-3.15-6.04-6.6-8.64-10.3Z"></path>
          <path fill="#E3701A" d="M333.76,455.36c4.29,3.14,8.78,6.18,13.47,9.18,4.65,2.87,9.47,5.59,14.5,8.27,2.47-3.84,5.15-7.25,8.14-10.08,1.45-1.5,2.98-2.87,4.59-4.09,1.6-1.24,3.33-2.26,5.03-3.34,3.6-2.18,7.6-3.6,11.74-4.8,2.09-.56,4.28-.97,6.55-1.25,2.22-.36,4.52-.59,6.92-.68.11-2.82.22-5.55.21-8.35-.02-2.81-.08-5.58-.18-8.32-.12-2.76-.21-5.4-.46-8.14-.24-2.73-.52-5.43-.83-8.09-1.99.05-3.93.16-5.82.32-1.88.18-3.82.27-5.65.5-1.85.21-3.64.48-5.38.82-1.77.3-3.55.6-5.24,1.01-1.71.39-3.34.89-4.98,1.38-1.66.46-3.28,1-4.84,1.62-3.08,1.32-6.23,2.59-9.12,4.37-11.44,6.68-20.41,16.55-28.64,29.68Z"></path>
          <path fill="#E3701A" d="M224.42,467.15l-13.58,50.6c1,1.44,2.04,2.88,3.14,4.27,1.71,2.25,3.59,4.29,5.58,6.27,1.99,1.98,4.09,3.89,6.31,5.72,2.22,1.81,4.57,3.39,7.01,4.95,1.22.77,2.47,1.52,3.74,2.25l1.92,1.07c.65.34,1.31.64,1.97.96,5.3,2.45,10.94,4.64,16.88,5.88,1.48.34,2.98.64,4.49.92,1.51.27,3.03.54,4.57.66,3.07.3,6.19.47,9.34.51.79,0,1.57,0,2.36,0,.78-.02,1.56-.08,2.34-.14,1.56-.11,3.1-.26,4.64-.43,1.54-.18,3.06-.39,4.57-.63l2.26-.38,2.23-.52c5.91-1.47,11.58-3.3,16.84-5.98,2.64-1.3,5.19-2.66,7.63-4.2,2.43-1.6,4.75-3.29,6.97-5.06,4.46-3.46,8.38-7.64,11.85-11.96,1.1-1.37,2.15-2.78,3.15-4.19l-13.59-50.6c-.39,4.51-1.14,8.93-2.3,13.24-.58,2.15-1.26,4.28-2.04,6.37-.39,1.05-.81,2.08-1.25,3.11-.45,1-.92,1.98-1.42,2.96-1.13,2.22-2.39,4.35-3.76,6.37-.13.21-.27.42-.42.64-1.18,1.71-2.43,3.39-3.77,4.91-1.34,1.5-2.76,2.91-4.24,4.25-2.97,2.67-6.19,5.09-9.64,6.86-6.88,3.77-14.59,5.71-22.43,5.75-1.96-.03-3.91-.15-5.85-.38-1.93-.24-3.85-.51-5.73-1.06-3.77-1.04-7.42-2.38-10.87-4.23-3.44-1.93-6.68-4.21-9.66-6.81-2.96-2.73-5.65-5.83-8.03-9.19-.15-.21-.29-.42-.43-.62-1.38-1.95-2.63-4.17-3.75-6.41-1.99-3.97-3.56-8.1-4.73-12.35-1.15-4.36-1.9-8.83-2.28-13.37Z"></path>
          <path fill="#2F5FAC" d="M236.1,460.34c1.06,2.46,2.18,4.94,3.35,7.44,1.18,2.41,2.42,4.82,3.71,7.25,1.29,2.42,2.63,4.88,4.03,7.31,1.41,2.36,2.87,4.73,4.39,7.1,2.03-1.04,4.04-1.86,6.05-2.67,2.02-.82,4.03-1.5,6.03-2.01,4.01-.93,8.01-1.69,12.04-1.59,2.11.09,4.2.1,6.29.4,2.09.27,4.19.75,6.28,1.35,2.09.52,4.19,1.21,6.3,2.06,2.1.83,4.23,1.93,6.34,2.96,1.5-2.41,2.95-4.81,4.34-7.21,1.39-2.42,2.74-4.72,4.01-7.23,1.27-2.46,2.5-4.92,3.67-7.36l1.72-3.65c.56-1.2,1.11-2.42,1.63-3.69-.87-.44-1.74-.9-2.62-1.38-.87-.46-1.74-.91-2.61-1.33-1.73-.85-3.44-1.63-5.15-2.32-1.7-.65-3.41-1.45-5.1-2.06-1.69-.63-3.37-1.18-5.04-1.65-1.67-.46-3.35-1.02-5.02-1.38-1.67-.39-3.33-.68-5-.9-1.67-.31-3.35-.53-5.03-.65-1.68-.14-3.37-.09-5.07-.17-1.66-.03-3.31.03-4.95.19-.82.07-1.64.21-2.46.27-.82.07-1.63.17-2.45.28-1.63.24-3.26.56-4.89.97-1.63.42-3.25.74-4.89,1.24-1.63.48-3.27,1.04-4.92,1.69-1.64.56-3.29,1.18-4.95,1.89-1.66.7-3.34,1.49-5.02,2.32-1.67.76-3.36,1.6-5.06,2.5Z"></path>
        </g>
        <g>
          <path fill="#2F5FAC" d="M135.47,415.86l-36.99,37.1c.14,1.75.33,3.52.58,5.28.37,2.8,1.02,5.46,1.72,8.2.73,2.71,1.58,5.44,2.6,8.11,1.07,2.62,2.27,5.21,3.61,7.78.67,1.28,1.37,2.56,2.1,3.83.74,1.26,1.56,2.45,2.38,3.66,1.66,2.4,3.46,4.76,5.37,7.06,1.94,2.27,4.07,4.37,6.27,6.46,1.11,1.04,2.24,2.06,3.4,3.05,1.16,1,2.41,1.89,3.65,2.81,2.49,1.81,5.09,3.54,7.78,5.16,2.75,1.52,5.54,2.9,8.36,4.15,1.41.61,2.81,1.24,4.26,1.75,1.45.51,2.9.98,4.35,1.42,2.91.86,5.8,1.65,8.73,2.19,2.95.5,5.89.87,8.8,1.11,1.46.11,2.9.22,4.36.23,1.46,0,2.92-.03,4.36-.1,2.89-.13,5.74-.39,8.54-.78,2.82-.45,5.61-1.09,8.32-1.81,2.72-.76,5.35-1.53,7.96-2.61,1.65-.67,3.27-1.39,4.86-2.15l13.58-50.6c-2.59,3.73-5.5,7.32-8.64,10.42-3.14,3.11-6.58,5.91-10.29,8.36-1.05.69-2.13,1.38-3.2,1.98-1.07.59-2.16,1.15-3.26,1.66-.21.12-.45.22-.68.33-1.87.87-3.78,1.64-5.71,2.31-1.93.66-3.9,1.26-5.83,1.62-3.88.78-7.86,1.19-11.78,1.11-3.88-.18-7.76-.75-11.53-1.74-3.7-1.12-7.32-2.64-10.75-4.52-3.35-2.03-6.47-4.4-9.3-7.04-2.74-2.77-5.18-5.84-7.28-9.11-2.04-3.35-3.67-7-4.94-10.75-.65-1.86-1.12-3.86-1.52-5.86-.39-2.01-.68-4.04-.86-6.1-.02-.26-.04-.51-.06-.76-.1-1.21-.16-2.42-.18-3.64-.02-1.22.03-2.5.11-3.76.27-4.44.97-8.82,2.08-13.1,1.11-4.27,2.75-8.59,4.68-12.71Z"></path>
          <path fill="#E3701A" d="M148.99,415.77c-.3,2.66-.63,5.43-.79,8.1-.18,2.68-.32,5.41-.41,8.16-.24,5.58-.13,11.04.12,16.7,4.47.34,8.85.83,12.8,2,1.96.61,3.95,1.18,5.82,1.96,1.88.76,3.68,1.67,5.4,2.72,7.37,4.08,13.3,10.44,18.47,18.45,2.5-1.31,4.94-2.64,7.34-3.98,2.41-1.38,4.8-2.86,7.13-4.32,2.33-1.46,4.6-2.95,6.83-4.44,2.25-1.56,4.45-3.17,6.6-4.77-1.04-1.69-2.1-3.3-3.19-4.86-1.06-1.63-2.14-3.19-3.25-4.68-1.1-1.5-2.26-2.86-3.4-4.27-1.14-1.42-2.3-2.77-3.51-4.03-2.44-2.45-4.87-4.96-7.54-7.01-1.35-1-2.67-2.09-4.06-3.05-1.39-.97-2.83-1.86-4.34-2.66-11.49-6.71-24.59-9.46-40.03-10.01Z"></path>
          <path fill="#E3701A" d="M84.1,327.03l-50.6,13.59c-.73,1.58-1.42,3.19-2.05,4.83-2.01,5.16-3.66,10.65-4.42,16.25-.42,2.81-.72,5.67-.89,8.57-.1,2.88,0,5.77.19,8.7.31,5.9,1.57,11.73,3.26,17.57l.66,2.19.8,2.14c.55,1.43,1.13,2.85,1.75,4.27.62,1.42,1.27,2.83,1.95,4.23.34.7.68,1.41,1.06,2.09l1.18,2.04c1.61,2.71,3.32,5.32,5.12,7.83.88,1.27,1.87,2.45,2.86,3.62.99,1.17,2.01,2.31,3.04,3.42,4.05,4.51,8.77,8.3,13.55,11.66.6.42,1.2.83,1.81,1.22l1.89,1.13c1.26.74,2.54,1.44,3.82,2.11,2.58,1.33,5.12,2.58,7.8,3.59,2.69,1,5.4,1.87,8.11,2.59,2.71.73,5.41,1.33,8.22,1.69,1.76.25,3.52.44,5.27.57l36.99-37.1c-4.12,1.95-8.36,3.55-12.7,4.74-4.26,1.12-8.63,1.82-13.06,2.09-2.51.15-5.05.19-7.44-.04-.24,0-.5-.03-.75-.06-4.1-.37-8.13-1.15-11.98-2.34-3.75-1.27-7.35-2.94-10.74-4.95-3.33-2.06-6.32-4.55-9.1-7.29-1.42-1.35-2.61-2.88-3.79-4.44-1.17-1.56-2.25-3.19-3.26-4.87-3.89-6.81-6.07-14.45-6.26-22.29-.2-3.87.28-7.87,1.11-11.78.42-1.95.93-3.89,1.56-5.8.65-1.92,1.47-3.85,2.36-5.73.12-.23.23-.46.34-.69,1.07-2.19,2.28-4.35,3.63-6.44.59-.92,1.21-1.82,1.85-2.71.67-.9,1.36-1.78,2.07-2.64,1.42-1.72,2.92-3.37,4.49-4.96,3.15-3.16,6.6-6.04,10.3-8.64Z"></path>
          <path fill="#2F5FAC" d="M95.85,333.76c-3.14,4.29-6.18,8.78-9.18,13.47-2.87,4.65-5.59,9.47-8.27,14.5,3.84,2.47,7.25,5.15,10.08,8.14,1.5,1.45,2.87,2.98,4.09,4.59,1.24,1.6,2.26,3.33,3.34,5.03,2.18,3.6,3.6,7.6,4.8,11.74.56,2.09.97,4.28,1.25,6.55.36,2.22.59,4.52.68,6.92,2.82.11,5.55.22,8.35.21,2.81-.02,5.58-.08,8.32-.18,2.76-.12,5.4-.21,8.14-.46,2.73-.24,5.43-.52,8.09-.83-.05-1.99-.16-3.93-.32-5.82-.18-1.88-.27-3.82-.5-5.65-.21-1.85-.48-3.64-.82-5.38-.3-1.77-.6-3.55-1.01-5.24-.39-1.71-.89-3.34-1.38-4.98-.46-1.66-1-3.28-1.62-4.84-1.32-3.08-2.59-6.23-4.37-9.12-6.68-11.44-16.55-20.41-29.68-28.64Z"></path>
        </g>
        <g>
          <path fill="#2F5FAC" d="M84.07,224.42l-50.6-13.58c-1.44,1-2.88,2.04-4.27,3.14-2.25,1.71-4.29,3.59-6.27,5.58-1.98,1.99-3.89,4.09-5.72,6.31-1.81,2.22-3.39,4.57-4.95,7.01-.77,1.22-1.52,2.47-2.25,3.74l-1.07,1.92c-.34.65-.64,1.31-.96,1.97-2.45,5.3-4.64,10.94-5.88,16.88-.34,1.48-.64,2.98-.92,4.49-.27,1.51-.54,3.03-.66,4.57-.3,3.07-.47,6.19-.51,9.34,0,.79,0,1.57,0,2.36.02.78.08,1.56.14,2.34.11,1.56.26,3.1.43,4.64.18,1.54.39,3.06.63,4.57l.38,2.26.52,2.23c1.47,5.91,3.3,11.58,5.98,16.84,1.3,2.64,2.66,5.19,4.19,7.63,1.6,2.43,3.29,4.75,5.06,6.97,3.46,4.46,7.64,8.38,11.96,11.85,1.37,1.1,2.78,2.15,4.19,3.15l50.6-13.59c-4.51-.39-8.93-1.14-13.24-2.3-2.15-.58-4.28-1.26-6.37-2.04-1.05-.39-2.08-.81-3.11-1.25-1-.45-1.98-.92-2.96-1.42-2.22-1.13-4.35-2.39-6.37-3.76-.21-.13-.42-.27-.64-.42-1.71-1.18-3.39-2.43-4.91-3.77-1.5-1.34-2.91-2.76-4.25-4.24-2.67-2.97-5.09-6.19-6.86-9.64-3.77-6.88-5.71-14.59-5.75-22.43.03-1.96.15-3.91.38-5.85.24-1.93.51-3.85,1.06-5.73,1.04-3.77,2.38-7.42,4.23-10.87,1.93-3.44,4.21-6.68,6.81-9.66,2.73-2.96,5.83-5.65,9.19-8.03.21-.15.42-.29.62-.43,1.95-1.38,4.17-2.63,6.41-3.75,3.97-1.99,8.1-3.56,12.35-4.73,4.36-1.15,8.83-1.9,13.37-2.28Z"></path>
          <path fill="#E3701A" d="M90.88,236.1c-2.47,1.06-4.94,2.18-7.44,3.35-2.41,1.18-4.82,2.42-7.25,3.71-2.42,1.29-4.88,2.63-7.31,4.03-2.36,1.41-4.73,2.87-7.1,4.39,1.04,2.03,1.86,4.04,2.67,6.05.82,2.02,1.5,4.03,2.01,6.03.93,4.01,1.69,8.01,1.59,12.04-.09,2.11-.1,4.2-.4,6.29-.27,2.09-.75,4.19-1.35,6.28-.52,2.09-1.21,4.19-2.06,6.3-.83,2.1-1.93,4.23-2.96,6.34,2.41,1.5,4.81,2.95,7.21,4.34,2.42,1.39,4.72,2.74,7.23,4.01,2.46,1.27,4.92,2.5,7.36,3.67l3.65,1.72c1.2.56,2.42,1.11,3.69,1.63.44-.87.9-1.74,1.38-2.62.46-.87.91-1.74,1.33-2.61.85-1.73,1.63-3.44,2.32-5.15.65-1.7,1.45-3.41,2.06-5.1.63-1.69,1.18-3.37,1.65-5.04.46-1.67,1.02-3.35,1.38-5.02.39-1.67.68-3.33.9-5,.31-1.67.53-3.35.65-5.03.14-1.68.09-3.37.17-5.07.03-1.66-.03-3.31-.19-4.95-.07-.82-.21-1.64-.27-2.46-.07-.82-.17-1.63-.28-2.45-.24-1.63-.56-3.26-.97-4.89-.42-1.63-.74-3.25-1.24-4.89-.48-1.63-1.04-3.27-1.69-4.92-.56-1.64-1.18-3.29-1.89-4.95-.7-1.66-1.49-3.33-2.32-5.02-.76-1.67-1.6-3.36-2.5-5.06Z"></path>
          <path fill="#E3701A" d="M135.36,135.47l-37.1-36.99c-1.75.14-3.52.33-5.28.58-2.8.37-5.46,1.02-8.2,1.72-2.71.73-5.44,1.58-8.11,2.6-2.62,1.07-5.21,2.27-7.78,3.61-1.28.67-2.56,1.37-3.83,2.1-1.26.74-2.45,1.56-3.66,2.38-2.4,1.66-4.76,3.46-7.06,5.37-2.27,1.94-4.37,4.07-6.46,6.27-1.04,1.11-2.06,2.24-3.05,3.4-1,1.16-1.89,2.41-2.81,3.65-1.81,2.49-3.54,5.09-5.16,7.78-1.52,2.75-2.9,5.54-4.15,8.36-.61,1.41-1.24,2.81-1.75,4.26-.51,1.45-.98,2.9-1.42,4.35-.86,2.91-1.65,5.8-2.19,8.73-.5,2.95-.87,5.89-1.11,8.8-.11,1.46-.22,2.9-.23,4.36,0,1.46.03,2.92.1,4.36.13,2.89.39,5.74.78,8.54.45,2.82,1.09,5.61,1.81,8.32.76,2.72,1.53,5.35,2.61,7.96.67,1.65,1.39,3.27,2.15,4.86l50.6,13.58c-3.73-2.59-7.32-5.5-10.42-8.64-3.11-3.14-5.91-6.58-8.36-10.29-.69-1.05-1.38-2.13-1.98-3.2-.59-1.07-1.15-2.16-1.66-3.26-.12-.21-.22-.45-.33-.68-.87-1.87-1.64-3.78-2.31-5.71-.66-1.93-1.26-3.9-1.62-5.83-.78-3.88-1.19-7.86-1.11-11.78.18-3.88.75-7.76,1.74-11.53,1.12-3.7,2.64-7.32,4.52-10.75,2.03-3.35,4.4-6.47,7.04-9.3,2.77-2.74,5.84-5.18,9.11-7.28,3.35-2.04,7-3.67,10.75-4.94,1.86-.65,3.86-1.12,5.86-1.52,2.01-.39,4.04-.68,6.1-.86.26-.02.51-.04.76-.06,1.21-.1,2.42-.16,3.64-.18,1.22-.02,2.5.03,3.76.11,4.44.27,8.82.97,13.1,2.08,4.27,1.11,8.59,2.75,12.71,4.68Z"></path>
          <path fill="#2F5FAC" d="M135.44,148.99c-2.66-.3-5.43-.63-8.1-.79-2.68-.18-5.41-.32-8.16-.41-5.58-.24-11.04-.13-16.7.12-.34,4.47-.83,8.85-2,12.8-.61,1.96-1.18,3.95-1.96,5.82-.76,1.88-1.67,3.68-2.72,5.4-4.08,7.37-10.44,13.3-18.45,18.47,1.31,2.5,2.64,4.94,3.98,7.34,1.38,2.41,2.86,4.8,4.32,7.13,1.46,2.33,2.95,4.6,4.44,6.83,1.56,2.25,3.17,4.45,4.77,6.6,1.69-1.04,3.3-2.1,4.86-3.19,1.63-1.06,3.19-2.14,4.68-3.25,1.5-1.1,2.86-2.26,4.27-3.4,1.42-1.14,2.77-2.3,4.03-3.51,2.45-2.44,4.96-4.87,7.01-7.54,1-1.35,2.09-2.67,3.05-4.06.97-1.39,1.86-2.83,2.66-4.34,6.71-11.49,9.46-24.59,10.01-40.03Z"></path>
        </g>
        <g>
          <path fill="#2F5FAC" d="M224.18,84.1l-13.59-50.6c-1.57-.73-3.19-1.42-4.83-2.05-5.16-2.01-10.65-3.66-16.25-4.42-2.81-.42-5.67-.72-8.57-.89-2.88-.1-5.77,0-8.7.19-5.9.31-11.73,1.57-17.57,3.26l-2.19.66-2.14.8c-1.43.55-2.85,1.13-4.27,1.75-1.42.62-2.83,1.27-4.23,1.95-.7.34-1.41.68-2.09,1.06l-2.04,1.18c-2.71,1.61-5.32,3.32-7.83,5.12-1.27.88-2.45,1.87-3.62,2.86-1.17.99-2.31,2.01-3.42,3.04-4.51,4.05-8.3,8.77-11.66,13.55-.42.6-.83,1.2-1.22,1.81l-1.13,1.89c-.74,1.26-1.44,2.54-2.11,3.82-1.33,2.58-2.58,5.12-3.59,7.8-1,2.69-1.87,5.4-2.59,8.11-.73,2.71-1.33,5.41-1.69,8.22-.25,1.76-.44,3.52-.57,5.27l37.1,36.99c-1.95-4.12-3.55-8.36-4.74-12.7-1.12-4.26-1.82-8.63-2.09-13.06-.15-2.51-.19-5.05.04-7.44,0-.24.03-.5.06-.75.37-4.1,1.15-8.13,2.34-11.98,1.27-3.75,2.94-7.35,4.95-10.74,2.06-3.33,4.55-6.32,7.29-9.1,1.35-1.42,2.88-2.61,4.44-3.79,1.56-1.17,3.19-2.25,4.87-3.26,6.81-3.89,14.45-6.07,22.29-6.26,3.87-.2,7.87.28,11.78,1.11,1.95.42,3.89.93,5.8,1.56,1.92.65,3.85,1.47,5.73,2.36.23.12.46.23.69.34,2.19,1.07,4.35,2.28,6.44,3.63.92.59,1.82,1.21,2.71,1.85.9.67,1.78,1.36,2.64,2.07,1.72,1.42,3.37,2.92,4.96,4.49,3.16,3.15,6.04,6.6,8.64,10.3Z"></path>
          <path fill="#E3701A" d="M217.46,95.85c-4.29-3.14-8.78-6.18-13.47-9.18-4.65-2.87-9.47-5.59-14.5-8.27-2.47,3.84-5.15,7.25-8.14,10.08-1.45,1.5-2.98,2.87-4.59,4.09-1.6,1.24-3.33,2.26-5.03,3.34-3.6,2.18-7.6,3.6-11.74,4.8-2.09.56-4.28.97-6.55,1.25-2.22.36-4.52.59-6.92.68-.11,2.82-.22,5.55-.21,8.35.02,2.81.08,5.58.18,8.32.12,2.76.21,5.4.46,8.14.24,2.73.52,5.43.83,8.09,1.99-.05,3.93-.16,5.82-.32,1.88-.18,3.82-.27,5.65-.5,1.85-.21,3.64-.48,5.38-.82,1.77-.3,3.55-.6,5.24-1.01,1.71-.39,3.34-.89,4.98-1.38,1.66-.46,3.28-1,4.84-1.62,3.08-1.32,6.23-2.59,9.12-4.37,11.44-6.68,20.41-16.55,28.64-29.68Z"></path>
          <path fill="#E3701A" d="M326.79,84.07l13.58-50.6c-1-1.44-2.04-2.88-3.14-4.27-1.71-2.25-3.59-4.29-5.58-6.27-1.99-1.98-4.09-3.89-6.31-5.72-2.22-1.81-4.57-3.39-7.01-4.95-1.22-.77-2.47-1.52-3.74-2.25l-1.92-1.07c-.65-.34-1.31-.64-1.97-.96-5.3-2.45-10.94-4.64-16.88-5.88-1.48-.34-2.98-.64-4.49-.92-1.51-.27-3.03-.54-4.57-.66-3.07-.3-6.19-.47-9.34-.51-.79,0-1.57,0-2.36,0-.78.02-1.56.08-2.34.14-1.56.11-3.1.26-4.64.43-1.54.18-3.06.39-4.57.63l-2.26.38-2.23.52c-5.91,1.47-11.58,3.3-16.84,5.98-2.64,1.3-5.19,2.66-7.63,4.19-2.43,1.6-4.75,3.29-6.97,5.06-4.46,3.46-8.38,7.64-11.85,11.96-1.1,1.37-2.15,2.78-3.15,4.19l13.59,50.6c.39-4.51,1.14-8.93,2.3-13.24.58-2.15,1.26-4.28,2.04-6.37.39-1.05.81-2.08,1.25-3.11.45-1,.92-1.98,1.42-2.96,1.13-2.22,2.39-4.35,3.76-6.37.13-.21.27-.42.42-.64,1.18-1.71,2.43-3.39,3.77-4.91,1.34-1.5,2.76-2.91,4.24-4.25,2.97-2.67,6.19-5.09,9.64-6.86,6.88-3.77,14.59-5.71,22.43-5.75,1.96.03,3.91.15,5.85.38,1.93.24,3.85.51,5.73,1.06,3.77,1.04,7.42,2.38,10.87,4.23,3.44,1.93,6.68,4.21,9.66,6.81,2.96,2.73,5.65,5.83,8.03,9.19.15.21.29.42.43.62,1.38,1.95,2.63,4.17,3.75,6.41,1.99,3.97,3.56,8.1,4.73,12.35,1.15,4.36,1.9,8.83,2.28,13.37Z"></path>
          <path fill="#2F5FAC" d="M315.12,90.88c-1.06-2.47-2.18-4.94-3.35-7.44-1.18-2.41-2.42-4.82-3.71-7.25-1.29-2.42-2.63-4.88-4.03-7.31-1.41-2.36-2.87-4.73-4.39-7.1-2.03,1.04-4.04,1.86-6.05,2.67-2.02.82-4.03,1.5-6.03,2.01-4.01.93-8.01,1.69-12.04,1.59-2.11-.09-4.2-.1-6.29-.4-2.09-.27-4.19-.75-6.28-1.35-2.09-.52-4.19-1.21-6.3-2.06-2.1-.83-4.23-1.93-6.34-2.96-1.5,2.41-2.95,4.81-4.34,7.21-1.39,2.42-2.74,4.72-4.01,7.23-1.27,2.46-2.5,4.92-3.67,7.36l-1.72,3.65c-.56,1.2-1.11,2.42-1.63,3.69.87.44,1.74.9,2.62,1.38.87.46,1.74.91,2.61,1.33,1.73.85,3.44,1.63,5.15,2.32,1.7.65,3.41,1.45,5.1,2.06,1.69.63,3.37,1.18,5.04,1.65,1.67.46,3.35,1.02,5.02,1.38,1.67.39,3.33.68,5,.9,1.67.31,3.35.53,5.03.65,1.68.14,3.37.09,5.07.17,1.66.03,3.31-.03,4.95-.19.82-.07,1.64-.21,2.46-.27.82-.07,1.63-.17,2.45-.28,1.63-.24,3.26-.56,4.89-.97,1.63-.42,3.25-.74,4.89-1.24,1.63-.48,3.27-1.04,4.92-1.69,1.64-.56,3.29-1.18,4.95-1.89,1.66-.7,3.33-1.49,5.02-2.32,1.67-.76,3.36-1.6,5.06-2.5Z"></path>
        </g>
        <g>
          <path fill="#2F5FAC" d="M415.74,135.36l36.99-37.1c-.14-1.75-.33-3.52-.58-5.28-.37-2.8-1.02-5.46-1.72-8.2-.73-2.71-1.58-5.44-2.6-8.11-1.07-2.62-2.27-5.21-3.61-7.78-.67-1.28-1.37-2.56-2.1-3.83-.74-1.26-1.56-2.45-2.38-3.66-1.66-2.4-3.46-4.76-5.37-7.06-1.94-2.27-4.07-4.37-6.27-6.46-1.11-1.04-2.24-2.06-3.4-3.05-1.16-1-2.41-1.89-3.65-2.81-2.49-1.81-5.09-3.54-7.78-5.16-2.75-1.52-5.54-2.9-8.36-4.15-1.41-.61-2.81-1.24-4.26-1.75-1.45-.51-2.9-.98-4.35-1.42-2.91-.86-5.8-1.65-8.73-2.19-2.95-.5-5.89-.87-8.8-1.11-1.46-.11-2.9-.22-4.36-.23-1.46,0-2.92.03-4.36.1-2.89.13-5.74.39-8.54.78-2.82.45-5.61,1.09-8.32,1.81-2.72.76-5.35,1.53-7.96,2.61-1.65.67-3.27,1.39-4.86,2.15l-13.58,50.6c2.59-3.73,5.5-7.32,8.64-10.42,3.14-3.11,6.58-5.91,10.29-8.36,1.05-.69,2.13-1.38,3.2-1.98,1.07-.59,2.16-1.15,3.26-1.66.21-.12.45-.22.68-.33,1.87-.87,3.78-1.64,5.71-2.31,1.93-.66,3.9-1.26,5.83-1.62,3.88-.78,7.86-1.19,11.78-1.11,3.88.18,7.76.75,11.53,1.74,3.7,1.12,7.32,2.64,10.75,4.52,3.35,2.03,6.47,4.4,9.3,7.04,2.74,2.77,5.18,5.84,7.28,9.11,2.04,3.35,3.67,7,4.94,10.75.65,1.86,1.12,3.86,1.52,5.86.39,2.01.68,4.04.86,6.1.02.26.04.51.06.76.1,1.21.16,2.42.18,3.64.02,1.22-.03,2.5-.11,3.76-.27,4.44-.97,8.82-2.08,13.1-1.11,4.27-2.75,8.59-4.68,12.71Z"></path>
          <path fill="#E3701A" d="M402.23,135.44c.3-2.66.63-5.43.79-8.1.18-2.68.32-5.41.41-8.16.24-5.58.13-11.04-.12-16.7-4.47-.34-8.85-.83-12.8-2-1.96-.61-3.95-1.18-5.82-1.96-1.88-.76-3.68-1.67-5.4-2.72-7.37-4.08-13.3-10.44-18.47-18.45-2.5,1.31-4.94,2.64-7.34,3.98-2.41,1.38-4.8,2.86-7.13,4.32-2.33,1.46-4.6,2.95-6.83,4.44-2.25,1.56-4.45,3.17-6.6,4.77,1.04,1.69,2.1,3.3,3.19,4.86,1.06,1.63,2.14,3.19,3.25,4.68,1.1,1.5,2.26,2.86,3.4,4.27,1.14,1.42,2.3,2.77,3.51,4.03,2.44,2.45,4.87,4.96,7.54,7.01,1.35,1,2.67,2.09,4.06,3.05,1.39.97,2.83,1.86,4.34,2.66,11.49,6.71,24.59,9.46,40.03,10.01Z"></path>
          <path fill="#E3701A" d="M467.11,224.18l50.6-13.59c.73-1.57,1.42-3.19,2.05-4.83,2.01-5.16,3.66-10.65,4.42-16.25.42-2.81.72-5.67.89-8.57.1-2.88,0-5.77-.19-8.7-.31-5.9-1.57-11.73-3.26-17.57l-.66-2.19-.8-2.14c-.55-1.43-1.13-2.85-1.75-4.27-.62-1.42-1.27-2.83-1.95-4.23-.34-.7-.68-1.41-1.06-2.09l-1.18-2.04c-1.61-2.71-3.32-5.32-5.12-7.83-.88-1.27-1.87-2.45-2.86-3.62-.99-1.17-2.01-2.31-3.04-3.42-4.05-4.51-8.77-8.3-13.55-11.66-.6-.42-1.2-.83-1.81-1.22l-1.89-1.13c-1.26-.74-2.54-1.44-3.82-2.11-2.58-1.33-5.12-2.58-7.8-3.59-2.69-1-5.4-1.87-8.11-2.59-2.71-.73-5.41-1.33-8.22-1.69-1.76-.25-3.52-.44-5.27-.57l-36.99,37.1c4.12-1.95,8.36-3.55,12.7-4.74,4.26-1.12,8.63-1.82,13.06-2.09,2.51-.15,5.05-.19,7.44.04.24,0,.5.03.75.06,4.1.37,8.13,1.15,11.98,2.34,3.75,1.27,7.35,2.94,10.74,4.95,3.33,2.06,6.32,4.55,9.1,7.29,1.42,1.35,2.61,2.88,3.79,4.44,1.17,1.56,2.25,3.19,3.26,4.87,3.89,6.81,6.07,14.45,6.26,22.29.2,3.87-.28,7.87-1.11,11.78-.42,1.95-.93,3.89-1.56,5.8-.65,1.92-1.47,3.85-2.36,5.73-.12.23-.23.46-.34.69-1.07,2.19-2.28,4.35-3.63,6.44-.59.92-1.21,1.82-1.85,2.71-.67.9-1.36,1.78-2.07,2.64-1.42,1.72-2.92,3.37-4.49,4.96-3.15,3.16-6.6,6.04-10.3,8.64Z"></path>
          <path fill="#2F5FAC" d="M455.36,217.46c3.14-4.29,6.18-8.78,9.18-13.47,2.87-4.65,5.59-9.47,8.27-14.5-3.84-2.47-7.25-5.15-10.08-8.14-1.5-1.45-2.87-2.98-4.09-4.59-1.24-1.6-2.26-3.33-3.34-5.03-2.18-3.6-3.6-7.6-4.8-11.74-.56-2.09-.97-4.28-1.25-6.55-.36-2.22-.59-4.52-.68-6.92-2.82-.11-5.55-.22-8.35-.21-2.81.02-5.58.08-8.32.18-2.76.12-5.4.21-8.14.46-2.73.24-5.43.52-8.09.83.05,1.99.16,3.93.32,5.82.18,1.88.27,3.82.5,5.65.21,1.85.48,3.64.82,5.38.3,1.77.6,3.55,1.01,5.24.39,1.71.89,3.34,1.38,4.98.46,1.66,1,3.28,1.62,4.84,1.32,3.08,2.59,6.23,4.37,9.12,6.68,11.44,16.55,20.41,29.68,28.64Z"></path>
        </g>
      </g>
      
      
    </g>
  </g>
<path d="M248 210 L322 275.61 L248 341" fill="none" stroke="#2F5FAC" stroke-width="46" stroke-linecap="round" stroke-linejoin="round"></path>
</svg>